<svg version="1.1" id="Layer_1" xmlns="http://www.w3.org/2000/svg" xmlns:xlink="http://www.w3.org/1999/xlink" x="0px" y="0px"
	 width="100%" viewBox="0 0 1024 1024" enable-background="new 0 0 1024 1024" xml:space="preserve">
<path fill="#000000" opacity="1.000000" stroke="none" 
	d="
M217.831665,656.163452 
	C211.009277,657.525574 204.559448,658.456726 198.191330,656.232788 
	C192.008759,654.073669 191.013077,651.132568 194.500031,645.688721 
	C195.751068,643.735596 197.196106,641.864746 198.788483,640.179077 
	C209.786575,628.536316 213.600632,614.253784 211.359329,599.056030 
	C208.688766,580.947571 204.744415,563.075623 208.832565,544.800049 
	C207.011963,544.333679 206.381393,545.318848 205.780304,545.999878 
	C193.127808,560.335327 182.770401,575.810303 181.268265,595.664429 
	C181.156616,597.140015 180.802887,598.640869 180.299698,600.035400 
	C178.659927,604.580078 175.011169,605.645203 171.330429,602.533875 
	C167.985123,599.706055 165.502640,596.110413 163.570694,592.206238 
	C157.276672,579.487061 154.404007,565.990295 153.565002,551.821106 
	C151.681396,520.010986 160.850449,491.345367 177.073700,464.467957 
	C178.154236,462.677826 180.946747,460.524963 178.878265,458.366425 
	C176.990860,456.396881 174.575272,458.795990 172.488846,459.506195 
	C156.691895,464.883331 143.015518,473.374542 132.662842,486.752930 
	C130.483185,489.569580 127.508713,491.341034 123.915672,489.936737 
	C120.525162,488.611542 119.740875,485.332642 119.720802,482.049683 
	C119.581100,459.206055 128.122604,439.540710 142.162201,422.028229 
	C150.962860,411.050659 162.797806,403.156555 172.356216,392.908173 
	C181.984238,382.585144 189.020599,370.461151 196.645432,358.746918 
	C198.720245,355.559296 197.480377,354.067780 192.573257,354.395020 
	C179.308365,355.279572 166.715195,352.934570 154.710068,347.292145 
	C147.581512,343.941681 140.760818,340.084290 135.472916,334.106049 
	C133.320770,331.672943 130.557144,329.066864 132.243088,325.303070 
	C133.781662,321.868317 137.116928,321.128235 140.545959,320.673157 
	C159.024429,318.220978 173.836029,308.711487 187.106842,296.301971 
	C198.175461,285.951721 207.544724,273.876495 219.525711,264.442627 
	C223.858932,261.030609 228.418808,257.993561 233.156891,255.191879 
	C234.820587,254.208115 236.903030,253.630798 237.519485,251.357559 
	C236.613586,248.739334 234.034851,249.010147 232.127655,248.436676 
	C220.251694,244.865631 208.753174,240.562927 199.104568,232.433884 
	C195.500488,229.397430 192.409454,225.941360 190.704483,221.432999 
	C187.831726,213.836761 191.242004,209.569122 199.224075,210.907837 
	C205.284576,211.924316 211.246719,213.258957 217.518906,212.279800 
	C226.360565,210.899521 233.875443,206.871735 240.937485,201.682648 
	C254.910873,191.415176 269.908630,183.334763 287.195374,180.196198 
	C297.797211,178.271332 308.366791,177.990158 318.869598,180.864380 
	C320.276703,181.249435 321.671906,182.095306 323.366119,180.914673 
	C323.766876,177.979218 321.275421,176.701904 319.535889,175.184647 
	C308.245636,165.336899 294.673126,161.425034 280.069824,160.323364 
	C277.247314,160.110458 274.393402,160.179764 271.596375,159.803543 
	C269.110443,159.469147 266.524811,158.805115 265.730286,155.910431 
	C264.909180,152.918869 265.783997,150.338837 268.112854,148.242950 
	C271.885620,144.847580 276.269836,142.496628 280.963440,140.685410 
	C301.062592,132.929260 321.951294,132.608109 342.991119,134.421097 
	C351.256195,135.133301 359.491730,136.398956 367.675323,137.795837 
	C379.853607,139.874557 390.785736,145.101715 401.077972,151.793320 
	C402.391937,152.647598 403.858612,154.343552 405.515991,152.926758 
	C407.499664,151.230972 405.657440,149.459702 404.783203,148.099350 
	C398.843597,138.856873 391.246399,131.228577 381.875916,125.445076 
	C379.119446,123.743774 376.237091,122.210976 376.762604,118.278381 
	C377.254028,114.600693 380.121185,113.124062 383.092621,111.872635 
	C388.135132,109.748993 393.393341,110.109207 398.251770,111.916924 
	C412.609100,117.258980 426.876099,122.882240 439.862427,131.210678 
	C452.034363,139.016830 461.193420,149.690811 468.891418,161.758575 
	C469.840088,163.245758 470.315582,165.522018 472.504028,165.514618 
	C475.007751,165.506149 475.395477,163.058258 476.195770,161.309998 
	C484.458252,143.260178 494.587677,126.602371 510.369537,113.942909 
	C525.510254,101.797737 543.116455,95.767799 561.949585,92.744637 
	C565.536621,92.168831 569.145447,91.415901 572.860657,91.709274 
	C575.565125,91.922813 578.161804,92.391609 580.502136,93.769379 
	C585.184631,96.526009 585.630554,100.869186 581.353027,104.209984 
	C573.597717,110.266975 565.962524,116.434731 559.117310,123.538467 
	C549.613892,133.400787 543.346008,144.902878 541.066772,158.485123 
	C540.824097,159.931061 539.944885,161.565369 541.519653,162.622086 
	C543.413391,163.892899 544.683167,162.187759 545.771301,161.088898 
	C564.033508,142.646957 586.674988,133.580994 611.927795,130.123230 
	C642.940918,125.876724 672.030945,129.991364 697.393311,150.031494 
	C699.857544,151.978653 702.969543,153.796539 701.931458,157.615402 
	C700.870117,161.519791 697.297058,161.778000 693.952637,162.402420 
	C684.953979,164.082489 675.641418,162.469849 666.734863,165.409485 
	C656.442810,168.806412 647.209351,173.550003 640.666138,182.468597 
	C641.925659,184.339218 643.366272,183.846985 644.515930,183.420990 
	C665.420410,175.675110 686.079468,178.630798 706.741150,184.580444 
	C716.308289,187.335373 725.650391,190.768539 735.691162,192.008255 
	C750.471191,193.833130 763.344360,190.030914 774.929260,181.027145 
	C778.523315,178.233826 782.352295,175.053116 787.077393,177.447800 
	C791.678528,179.779663 790.689758,184.763367 790.223267,188.719299 
	C788.466980,203.613678 781.273560,215.681641 770.041931,225.458084 
	C768.699280,226.626831 766.908386,227.376923 766.057434,229.906967 
	C772.966553,231.820251 779.900757,233.573212 786.272095,236.712585 
	C820.586487,253.620438 845.943115,278.693207 857.715942,315.919617 
	C859.376038,321.169067 860.090576,326.639984 858.696777,332.175171 
	C857.979004,335.025879 857.133789,337.750702 853.774902,338.394165 
	C850.605774,339.001282 848.846436,336.874268 847.297180,334.632751 
	C835.665039,317.802856 817.706665,313.043427 799.174622,309.382294 
	C798.732544,309.294983 798.231262,309.507812 797.757996,309.580597 
	C797.641052,310.880463 798.637634,311.440582 799.340942,312.027771 
	C814.139160,324.383057 825.820923,339.225372 834.353027,356.469025 
	C844.839111,377.661682 859.040527,395.419586 879.245850,408.275238 
	C895.110535,418.369080 903.566895,433.404663 905.946594,451.978607 
	C906.359741,455.202728 905.975342,458.146210 903.179871,459.967712 
	C900.128967,461.955597 897.739502,459.783356 895.721741,457.800201 
	C883.504150,445.792389 868.239014,439.937164 852.030640,435.943481 
	C850.303528,435.517975 848.536438,434.619629 846.865295,436.205170 
	C846.319885,438.211975 847.878845,439.321106 848.873779,440.492645 
	C860.267944,453.908722 869.142944,468.977203 877.718262,484.243378 
	C886.905457,500.598877 899.045593,513.911499 916.078674,522.447144 
	C923.139832,525.985596 923.785034,529.328430 918.855652,535.405334 
	C910.814270,545.318665 899.589478,549.151306 887.526978,551.323608 
	C877.152710,553.191956 866.971008,551.765442 856.791077,549.895020 
	C855.647278,549.684875 854.510376,549.396240 853.356750,549.287781 
	C849.684204,548.942627 848.591125,550.404053 850.563110,553.635559 
	C854.826233,560.621521 858.669678,567.820312 861.399170,575.547424 
	C868.740662,596.331055 869.859192,617.144714 861.418396,637.945435 
	C861.105652,638.716125 860.791992,639.495483 860.382874,640.216431 
	C858.820312,642.970337 857.401611,646.171082 853.658936,646.159912 
	C849.663757,646.148010 848.069763,642.940125 846.818604,639.779968 
	C842.744324,629.488770 836.787109,620.608154 827.725586,614.050110 
	C826.331787,613.041382 825.072266,611.401428 822.312561,612.166138 
	C824.710632,621.045044 824.699829,630.155334 824.245850,639.224792 
	C823.445801,655.209534 819.740295,670.511169 811.885803,684.584839 
	C809.204590,689.389099 805.961304,693.860901 801.090027,696.828979 
	C797.413452,699.069153 794.565674,698.154724 793.062134,694.301514 
	C791.617004,690.597839 790.707214,686.684204 789.581909,682.857056 
	C787.499329,675.774048 784.582397,669.209106 778.815979,664.471741 
	C776.088806,665.457214 776.581970,667.496643 776.274475,669.235962 
	C773.117310,687.092529 765.808411,702.558777 750.408264,713.169983 
	C743.334473,718.043945 739.193542,716.530212 735.941528,708.441101 
	C734.692871,705.335144 734.825012,701.482239 731.362915,699.251892 
	C728.253967,700.970276 727.349731,704.177612 725.928894,706.874695 
	C724.604797,709.388123 727.174133,710.362915 728.629700,711.497375 
	C741.768433,721.737915 755.061768,731.782288 768.115845,742.128906 
	C805.985596,772.144714 830.361389,810.962891 843.182861,857.360168 
	C848.552734,876.791992 852.255371,896.529236 855.273926,916.428833 
	C855.750244,919.568726 854.759155,921.324097 851.960144,922.753845 
	C829.838989,934.053406 806.576538,941.732910 781.974060,945.345093 
	C772.257324,946.771729 762.533203,948.036926 752.707031,948.323120 
	C750.927246,948.374878 749.077881,948.633118 747.454529,947.710266 
	C747.439453,946.402161 748.271790,946.066772 749.081787,946.023987 
	C756.820618,945.615601 763.918518,942.834961 771.258545,940.672485 
	C783.344360,937.111755 795.975159,935.845642 808.418701,933.813599 
	C818.643799,932.143738 828.378174,928.957947 836.308533,921.715088 
	C839.446777,918.848938 841.104309,915.658569 841.043335,911.246826 
	C840.887756,899.988098 838.380066,889.147522 835.794922,878.303650 
	C831.308533,859.485291 825.495056,841.145569 817.285034,823.549194 
	C805.601868,798.508667 788.998840,777.340332 768.055969,759.504150 
	C749.027222,743.298096 729.336060,727.906982 709.506287,712.698914 
	C707.680786,711.298889 705.847107,708.679016 702.970154,710.279175 
	C700.405701,711.705566 701.347473,714.453979 701.365051,716.662231 
	C701.584167,744.222290 697.896851,771.404114 693.584229,798.529785 
	C693.427979,799.512390 693.389587,800.514648 693.314941,801.509216 
	C692.344666,814.435486 689.893799,818.915649 675.261902,823.867615 
	C667.055908,826.644714 658.394226,827.629395 649.937927,829.424316 
	C645.837036,830.294739 641.194275,829.386841 637.583740,832.557129 
	C637.985718,835.593262 639.656311,837.928162 641.047729,840.339233 
	C643.718567,844.967224 645.729614,849.911316 648.141052,854.649719 
	C651.792297,861.824280 649.249207,867.605591 644.712402,872.920654 
	C639.733887,878.753174 634.150330,884.002197 627.743652,888.316162 
	C620.147034,893.431396 612.616150,898.644470 605.009216,903.744080 
	C603.551025,904.721619 602.090698,905.902954 600.101746,905.870789 
	C601.697266,901.047241 606.452148,898.591553 609.454468,893.919678 
	C603.369568,893.395203 598.806885,894.755493 594.038391,896.772888 
	C598.104065,893.644775 602.109741,890.434692 606.248413,887.406433 
	C613.775635,881.898499 621.546082,876.710327 628.912048,870.998108 
	C637.519348,864.323181 638.449707,859.814880 634.251587,849.754395 
	C631.420410,842.969849 627.895752,836.568787 623.887146,830.406311 
	C619.854492,824.206787 620.934937,821.379456 628.043701,819.907410 
	C641.556946,817.109131 655.064087,814.225891 668.669800,811.953064 
	C675.495667,810.812866 678.746826,806.829956 680.597168,800.840515 
	C683.265442,792.203796 684.193359,783.242432 685.327393,774.345154 
	C687.852295,754.534729 690.173279,734.688477 689.612976,714.658630 
	C689.369385,705.951904 688.588440,697.309998 682.810669,690.093811 
	C682.186462,689.314209 681.656250,688.456604 681.005554,687.701416 
	C675.890015,681.764893 673.581116,682.033936 669.793884,688.842468 
	C649.621704,725.106689 628.048096,760.538208 603.792542,794.198242 
	C587.543396,816.747620 569.406250,837.887878 551.486816,859.162415 
	C539.585876,873.291748 527.957153,887.670288 517.034302,902.593140 
	C515.674683,904.450684 514.117920,906.163940 512.019409,908.713135 
	C511.928192,904.010071 516.247681,900.445190 512.690002,896.322754 
	C510.074219,898.064392 508.568604,901.427368 503.900696,901.060364 
	C514.051147,885.906311 525.784790,872.664612 536.300476,858.891907 
	C535.810120,857.177612 534.632263,857.284607 533.731323,857.030884 
	C527.614014,855.307861 522.924805,851.882690 518.721802,846.942444 
	C511.371735,838.303162 504.589233,829.260315 497.932648,820.118103 
	C492.887970,813.189880 485.432007,810.952087 478.223907,812.604492 
	C470.983154,814.264465 464.723724,813.375366 458.341309,810.917053 
	C455.167450,809.694580 453.046875,810.085938 450.926147,812.626709 
	C448.504425,815.528076 446.238556,818.506897 442.557831,820.249146 
	C440.345764,821.296143 439.618530,824.043518 439.055634,826.601746 
	C436.984039,836.017456 431.445831,842.761841 422.510193,846.363708 
	C419.336639,847.643066 418.955139,849.279602 420.040131,852.105225 
	C426.844482,869.826111 434.048218,887.368652 442.538940,904.367615 
	C444.407562,908.108765 447.186035,911.573364 447.368530,916.349976 
	C443.573120,916.187622 442.144928,913.297058 440.074646,911.094482 
	C439.730621,917.804993 441.981262,921.146790 447.869415,922.389160 
	C450.667175,922.979431 452.772186,924.252441 454.326141,926.612305 
	C456.158325,929.394592 457.878815,932.279602 459.977631,934.850769 
	C463.955750,939.724060 467.158600,945.283081 475.554626,943.470764 
	C479.412170,942.638123 485.506287,941.965149 488.170013,949.920959 
	C458.356323,950.317505 429.322449,950.179077 398.703705,949.884949 
	C402.510559,944.187927 405.482788,940.095337 410.515747,937.995483 
	C414.481903,936.340759 416.803162,939.134705 419.042145,941.562317 
	C421.383148,944.100464 424.073914,944.965759 427.492035,944.916748 
	C432.811462,944.840515 438.136536,945.323669 443.461792,945.410950 
	C445.962677,945.452026 448.847778,945.357239 450.217896,943.022461 
	C451.388885,941.026978 449.143555,939.376648 448.153778,937.760681 
	C431.014343,909.777527 418.362427,879.773682 407.778625,848.811279 
	C399.856567,825.635864 393.579681,802.002441 388.023560,778.179138 
	C386.591553,772.039001 382.187134,768.155579 378.628662,763.715881 
	C374.165649,758.147583 368.708252,753.420776 362.782928,749.296692 
	C359.298157,746.871277 357.046234,747.353577 355.640503,751.438904 
	C349.906036,768.104248 343.628845,784.597778 341.884155,802.376099 
	C341.549133,805.790100 342.515656,807.412720 345.392273,808.423828 
	C352.772064,811.017456 360.157532,813.594727 367.545319,816.165527 
	C376.883698,819.415039 377.566406,821.934387 371.441162,829.477356 
	C365.142609,837.233582 359.013855,845.121460 353.271210,853.312317 
	C350.724396,856.944946 350.790924,860.156494 352.959869,863.933777 
	C361.822083,879.367493 373.785583,892.376892 385.272400,905.765015 
	C386.870605,907.627808 388.824371,909.249207 389.292328,912.240967 
	C385.901917,912.939880 381.417786,908.825989 379.495819,914.866699 
	C374.691376,912.159607 371.612976,908.246460 368.514374,904.420288 
	C360.451965,894.464294 351.671356,885.056458 345.066620,873.977295 
	C344.299835,872.691101 343.626587,871.344177 342.794678,870.102722 
	C337.899475,862.797607 338.513306,855.916016 343.802917,848.972168 
	C348.919128,842.255859 353.621399,835.224243 358.672791,828.094971 
	C353.870605,823.908508 347.756683,823.417603 342.689636,820.731384 
	C341.964722,820.347046 341.098816,820.238953 340.334076,819.917664 
	C330.226227,815.670044 328.797333,812.766479 330.016876,801.812927 
	C331.912933,784.783142 337.474548,768.747498 342.732361,752.611694 
	C343.299194,750.872192 343.810577,749.114502 344.341431,747.363342 
	C345.069733,744.960754 345.105164,742.538696 342.822815,741.063049 
	C340.519104,739.573608 337.912170,739.883057 335.857544,741.681824 
	C323.341156,752.639771 310.202728,762.881226 298.994171,775.317993 
	C269.347961,808.212952 253.069763,847.898987 240.538055,889.503479 
	C238.093430,897.619324 235.950348,905.859131 234.279602,914.164795 
	C232.884186,921.101624 237.260773,925.494324 244.314362,924.585754 
	C248.231476,924.081116 251.524368,924.933533 254.724167,926.990479 
	C256.119080,927.887268 257.577911,928.772095 259.128052,929.324951 
	C266.366119,931.906372 269.685303,929.417114 272.564911,922.550964 
	C277.012726,911.945435 274.174591,900.949524 275.667267,890.202026 
	C278.136078,872.426392 278.430511,854.371643 281.820984,836.676758 
	C282.416199,833.570129 282.935822,830.422058 284.702179,827.705933 
	C285.636688,826.268921 286.916626,824.918701 288.775116,825.484436 
	C290.594360,826.038330 290.320435,827.902466 290.250854,829.348267 
	C289.834991,837.992065 289.398132,846.635559 288.862915,855.272705 
	C288.049957,868.392395 287.144958,881.506470 286.290314,894.623596 
	C285.619781,904.914734 284.785919,915.199524 284.360504,925.500977 
	C283.998535,934.264832 290.128235,942.083923 298.642059,944.650391 
	C300.890076,945.328064 303.600128,945.086792 305.326996,947.213379 
	C304.126831,949.646667 302.052490,949.085144 300.373810,949.100891 
	C273.455322,949.352051 246.944489,946.025757 220.744781,939.954834 
	C217.495850,939.201965 215.846298,937.918518 216.661438,934.167969 
	C227.067871,886.288330 240.844086,839.597290 266.525391,797.346741 
	C280.431396,774.468750 299.053314,755.655334 319.822479,738.908386 
	C322.389740,736.838257 325.073181,734.843506 327.621307,731.104004 
	C303.512817,718.322632 294.877960,696.245728 292.968750,670.657104 
	C289.323792,671.231018 288.107208,673.378235 286.726105,675.143677 
	C282.079468,681.083557 278.474152,687.607483 275.789948,694.686523 
	C272.729706,702.757202 266.942078,703.680481 261.721069,696.851135 
	C254.087830,686.866394 251.423553,675.042786 249.645828,662.901855 
	C248.606491,655.803711 248.697678,648.661621 248.613083,640.165161 
	C238.686798,647.256714 229.286728,653.368652 217.831665,656.163452 
M265.391998,254.900345 
	C261.018341,256.509247 256.520477,257.845825 252.292480,259.774139 
	C233.772751,268.220581 218.638229,280.992859 205.220627,296.178162 
	C191.496933,311.709869 175.768356,324.667267 155.467636,330.934662 
	C154.884628,331.114655 154.141556,331.332520 154.132904,332.723724 
	C162.774292,337.368103 172.032623,341.030914 182.090363,341.569824 
	C194.346924,342.226532 205.185898,337.458954 215.460922,331.253204 
	C223.731491,326.258087 231.875107,321.025482 240.710846,317.047180 
	C245.119141,315.062347 249.611450,313.238281 254.631516,313.655396 
	C255.962051,313.765930 257.518860,313.645782 257.887146,315.296112 
	C258.258606,316.960846 256.809692,317.619659 255.609467,318.143890 
	C235.128036,327.089600 221.266632,343.057495 210.182098,361.681488 
	C197.476715,383.028778 182.807037,402.575012 163.514709,418.550751 
	C153.300232,427.009277 145.026520,437.317108 139.963943,449.804688 
	C138.128128,454.333008 135.930679,458.806702 135.407028,463.713440 
	C136.982513,464.331116 137.726151,463.524078 138.470276,462.930847 
	C149.191071,454.384308 161.518066,448.980591 174.414215,444.800293 
	C190.787201,439.493042 205.229050,431.413635 215.775543,417.351135 
	C216.953033,415.781067 218.458023,414.320404 220.106720,413.275330 
	C222.038483,412.050842 224.411255,412.038147 226.161270,413.646667 
	C228.344101,415.652924 226.159576,417.219147 225.144470,418.792206 
	C224.423828,419.908875 223.597336,420.964569 222.749191,421.990509 
	C209.137100,438.456360 196.950348,455.866882 186.181625,474.366455 
	C169.200378,503.538483 162.093277,534.375000 168.352722,567.862610 
	C168.919815,570.896484 169.087952,574.114868 171.746811,577.247009 
	C175.250214,568.245972 179.364014,560.142273 184.590546,552.620544 
	C195.798950,536.489990 209.298370,522.514038 224.312485,509.940094 
	C225.840454,508.660461 227.422180,507.218323 229.645538,508.571411 
	C231.939499,509.967468 231.864746,512.183350 231.334229,514.337280 
	C230.699402,516.914734 229.946976,519.490479 228.950577,521.947327 
	C220.214401,543.488159 217.628845,565.625793 222.418808,588.475281 
	C226.202179,606.523071 224.951431,623.880676 215.664917,640.212097 
	C215.272568,640.902100 214.843185,641.720581 215.673279,642.456177 
	C217.064407,642.941833 218.276352,642.412842 219.527283,641.918335 
	C230.571671,637.552185 240.182388,631.120789 247.803375,621.955383 
	C251.098389,617.992554 254.033768,613.732178 257.182831,609.645752 
	C258.240326,608.273438 259.591675,607.205750 261.476074,607.813538 
	C263.251343,608.386230 263.384857,610.008362 263.362793,611.520691 
	C263.299652,615.843689 263.487518,620.158875 262.833008,624.482605 
	C260.290771,641.277649 260.587494,657.976807 265.047089,674.469849 
	C265.536804,676.280945 265.456848,678.537964 267.945435,679.239929 
	C268.383423,678.903381 268.905060,678.688416 269.132324,678.300781 
	C274.992706,668.306519 282.084747,659.329773 290.905060,651.765503 
	C292.963074,650.000549 293.529083,647.684265 293.589905,645.049805 
	C293.731995,638.897400 293.400818,632.729309 294.518707,626.605164 
	C295.084595,623.504944 293.784119,620.829956 291.862213,618.305542 
	C275.105560,596.295471 267.207703,571.654053 270.755157,543.953491 
	C272.486298,530.435852 277.681793,518.578003 290.143982,511.250946 
	C291.876007,510.232605 292.944946,508.944275 292.896881,506.874512 
	C292.761414,501.044556 292.839325,495.200623 292.455078,489.387146 
	C291.391754,473.298157 289.305115,457.266327 290.622192,441.073914 
	C292.571228,417.112091 296.940857,393.632690 303.986328,370.640594 
	C314.344299,336.838837 333.082001,309.114502 362.712860,289.224854 
	C363.511444,288.688782 364.424744,288.083008 364.120972,286.778168 
	C363.122009,284.959045 361.299957,285.358093 359.709442,285.346771 
	C353.885559,285.305298 348.073242,285.165741 342.263824,286.121460 
	C340.211517,286.459137 336.899902,287.650208 336.048798,284.877319 
	C335.072388,281.696289 338.848633,281.402557 340.721191,280.027191 
	C341.104065,279.745972 341.667450,279.722473 342.129181,279.534790 
	C355.798767,273.977783 369.558685,273.663025 383.553162,278.421844 
	C392.061279,281.315033 400.735840,283.714844 409.731964,284.602234 
	C411.332764,284.760162 413.345032,285.121765 414.253113,283.337311 
	C415.221161,281.434937 413.444366,280.296539 412.330170,279.154877 
	C407.176392,273.874115 402.983154,267.860596 399.034088,261.679474 
	C395.355957,255.922333 391.953613,249.996994 386.862762,245.274170 
	C385.559296,244.064896 384.368561,242.506744 385.243225,240.365372 
	C387.872772,238.789383 390.026367,240.334274 392.172302,241.526749 
	C399.093597,245.372864 403.813049,251.413147 407.999146,257.883606 
	C414.522339,267.966339 422.291290,276.684723 433.081451,282.413086 
	C436.010193,283.967957 438.695679,285.991760 441.445129,287.870117 
	C443.513947,289.283447 445.067902,291.211975 443.906799,293.763184 
	C442.754089,296.295959 440.016418,296.818604 437.882690,295.788055 
	C430.653748,292.296509 423.229340,293.478424 415.854034,294.455627 
	C410.645386,295.145721 405.458557,294.900330 400.431335,294.053497 
	C388.068207,291.970917 377.257141,295.696869 367.433807,302.495087 
	C346.617828,316.900726 331.466797,335.904358 322.145966,359.567871 
	C313.491486,381.539673 308.933411,404.545013 304.447266,427.575378 
	C302.014740,440.062988 301.427826,452.743469 302.609039,465.369934 
	C304.486420,485.438171 305.836945,505.546875 306.101227,525.671387 
	C306.554138,560.165161 306.259949,594.668884 306.240204,629.168457 
	C306.238586,631.994873 305.926666,634.820679 305.775909,637.647644 
	C305.050385,651.251404 303.291779,664.803467 305.265503,678.487427 
	C307.886047,696.655762 315.625793,711.383606 332.010864,720.708374 
	C336.785004,723.425293 341.444641,726.532043 346.533142,728.473816 
	C364.716431,735.412354 379.577606,746.826782 392.762878,760.886169 
	C402.818542,771.608582 415.439606,778.222229 429.587311,781.964783 
	C448.906891,787.075562 468.445221,788.878601 488.422455,786.827698 
	C508.292969,784.787842 526.416809,778.682678 542.195007,766.216370 
	C550.481323,759.669373 557.765442,752.171509 563.887695,743.538879 
	C566.485840,739.875427 568.053894,739.866577 569.751282,743.805786 
	C570.836304,746.323608 572.161011,746.484619 574.365601,745.995117 
	C576.955688,745.420044 579.623169,745.191772 582.211121,744.609009 
	C606.037170,739.243042 627.286499,729.224731 643.070557,709.876709 
	C656.803406,693.043030 663.613342,673.144165 667.707336,652.141357 
	C668.883484,646.107483 669.498901,639.930664 671.865112,634.192749 
	C672.787109,631.956848 673.737915,628.969666 676.868958,629.531250 
	C679.822937,630.061035 680.118958,632.963989 680.294617,635.510864 
	C680.580994,639.661316 680.802368,643.816101 681.067383,647.968079 
	C681.178284,649.705566 681.753113,651.220520 683.271606,652.242615 
	C688.978943,656.084167 695.197083,658.036987 702.092834,656.918091 
	C714.333313,654.931641 722.714233,647.044922 729.656860,637.676697 
	C744.447754,617.718384 755.200439,595.550110 763.401306,572.193115 
	C767.876587,559.447266 769.876404,546.348694 764.679688,533.129272 
	C758.024719,516.200195 731.638611,501.341858 713.526123,523.954712 
	C707.162598,531.899414 700.750793,539.737915 695.640808,548.577209 
	C694.288574,550.916260 693.261963,554.495789 689.806702,553.835083 
	C686.866943,553.273010 686.784729,549.788330 685.884277,547.341431 
	C685.713806,546.878296 685.720459,546.352905 685.581238,545.874878 
	C680.019165,526.773621 679.351135,507.184113 679.797668,487.491455 
	C679.887329,483.535126 680.946045,479.715271 680.094604,475.599823 
	C678.432434,467.565460 675.428101,459.985413 673.085876,452.185028 
	C668.833923,438.024963 666.551208,423.754456 669.485535,408.899170 
	C671.446960,398.969299 674.721252,388.852875 673.300354,378.801392 
	C668.839111,347.241150 654.596863,321.825897 625.070129,306.794952 
	C606.735046,297.461243 587.604919,292.216187 566.821655,294.251770 
	C564.270874,294.501587 560.295837,295.627899 559.764648,291.688019 
	C559.276550,288.068359 563.285217,288.387146 565.604126,287.655701 
	C576.711975,284.151917 587.917236,280.953674 599.001587,277.379150 
	C615.461182,272.071167 632.175659,268.789612 649.535767,270.737579 
	C655.622986,271.420624 661.931396,271.940430 666.838623,276.813995 
	C656.858948,278.982117 646.703735,276.691528 636.819519,278.687042 
	C626.779907,280.713989 616.736328,282.677277 605.959534,286.961792 
	C614.972839,290.463989 622.667480,293.868591 630.125793,297.824829 
	C660.375549,313.870575 677.765015,339.226929 683.783569,372.478058 
	C685.141235,379.979095 687.283997,386.407104 692.472107,392.080017 
	C704.461121,405.189301 718.094177,415.820831 734.854980,422.155457 
	C736.593323,422.812500 739.543152,423.233246 738.874512,425.733185 
	C738.139893,428.479767 735.248840,427.066498 733.236206,427.118134 
	C732.593140,427.134644 731.946655,426.811157 731.293884,426.683136 
	C714.951233,423.477722 701.149780,415.483337 688.976929,404.355133 
	C687.625244,403.119415 686.432312,400.635437 684.062256,402.048004 
	C682.128113,403.200806 682.372925,405.513916 682.461975,407.523560 
	C682.968689,418.963928 686.454529,429.414490 693.052856,438.777039 
	C702.435486,452.090424 713.524231,463.748901 726.715088,473.378265 
	C728.447083,474.642639 730.965820,475.512421 730.899841,478.484131 
	C727.823669,480.534027 725.322327,478.793091 722.933350,477.479431 
	C709.539185,470.114044 697.578674,460.914978 687.401672,449.449646 
	C686.202576,448.098694 685.410461,445.968842 682.922180,446.135773 
	C682.286316,448.303619 683.302917,449.940887 684.003845,451.540833 
	C691.940430,469.658356 694.946167,488.322998 691.546631,508.043457 
	C690.448364,514.414673 691.182129,521.093811 693.574768,527.389893 
	C696.566650,526.743286 697.530334,524.657532 698.811157,523.000488 
	C702.794434,517.847412 707.028992,512.918274 711.913208,508.605865 
	C717.120422,504.008301 723.010376,500.624817 730.026062,499.712555 
	C756.129944,496.318298 774.697021,515.846985 778.246094,536.290161 
	C780.238708,547.767761 780.089478,559.218750 776.829956,570.412415 
	C767.760681,601.557739 752.592041,629.608093 731.699951,654.279358 
	C719.524597,668.657043 703.357544,672.712646 685.071960,667.395447 
	C683.725769,667.003967 682.360168,665.884949 680.879395,666.901306 
	C680.121704,667.992737 680.524170,668.916870 681.208191,669.686096 
	C690.315857,679.927795 700.263123,689.253174 711.383423,697.300049 
	C713.704651,698.979736 715.247803,698.310303 716.653992,696.018188 
	C720.053589,690.476685 721.684265,684.475525 721.816284,678.004517 
	C721.870544,675.345337 722.758423,672.989929 725.498718,672.039062 
	C728.221436,671.094299 729.941956,672.971558 731.414124,674.781311 
	C735.933350,680.336365 740.458191,685.886597 743.832581,692.273987 
	C746.832642,697.952942 747.871460,697.972229 752.024414,692.770691 
	C761.972595,680.310730 765.281677,665.855591 765.065125,650.236877 
	C764.949585,641.907166 767.052063,640.676575 774.605469,644.255310 
	C785.659241,649.492371 792.987976,658.297241 798.194092,669.127686 
	C799.062500,670.934387 799.102234,673.469910 801.848694,674.108032 
	C803.448975,672.969238 804.117920,671.245178 804.824158,669.581543 
	C808.899963,659.980469 811.017578,649.885437 811.603760,639.540100 
	C812.424500,625.057800 810.418274,611.006836 804.322571,597.643616 
	C803.319336,595.444397 801.666687,592.510925 804.035034,590.186523 
	C806.370667,587.894226 809.074707,589.668152 811.538086,590.428101 
	C826.691162,595.102478 838.591614,604.459534 848.756531,616.328857 
	C849.848999,617.604553 850.348816,619.741394 852.728333,619.628601 
	C852.995239,619.163635 853.352173,618.766846 853.457581,618.311829 
	C853.682129,617.342712 853.793579,616.345642 853.920715,615.356140 
	C855.441467,603.517517 853.691345,592.030396 849.227356,581.105957 
	C842.244690,564.017517 832.597595,548.503845 820.254639,534.699585 
	C818.697876,532.958557 816.092285,531.104614 817.796753,528.269043 
	C819.356140,525.674805 821.871216,527.116516 824.135010,527.463013 
	C833.892090,528.956299 843.150513,532.333191 852.635803,534.847961 
	C866.930725,538.637939 881.215088,539.137512 895.485657,534.746704 
	C897.662231,534.077026 900.022217,533.651855 901.381531,530.820679 
	C896.998779,527.114258 892.464966,523.535217 888.219604,519.641541 
	C876.112976,508.537598 868.257385,494.330109 860.057983,480.409271 
	C849.164978,461.915253 836.595032,444.808899 820.086731,430.851074 
	C812.697388,424.603333 805.029053,418.742126 796.935974,413.429352 
	C795.523071,412.501831 793.158569,411.675018 794.291199,409.348053 
	C795.225586,407.428436 797.368713,407.708771 799.221375,407.959808 
	C799.713623,408.026550 800.189697,408.205505 800.677795,408.311401 
	C821.665588,412.863770 842.170227,419.233429 862.840088,424.968781 
	C870.238159,427.021545 877.392822,429.951385 885.727722,432.853149 
	C882.402588,425.846680 877.236877,422.201630 872.156128,419.034241 
	C849.950195,405.190887 834.447144,385.714508 822.564880,362.758545 
	C810.031128,338.544067 791.834351,319.807220 766.965515,307.972809 
	C765.024719,307.049255 762.717041,306.284271 762.818359,303.569336 
	C762.917542,300.909973 764.818542,299.481567 767.043884,298.485931 
	C772.589661,296.004700 778.460938,294.857056 784.487183,294.702118 
	C803.277954,294.218933 820.589294,299.679413 837.165527,308.027069 
	C838.703003,308.801331 839.987488,310.375397 842.310913,309.859863 
	C841.988892,308.816986 841.846252,307.820953 841.400085,306.987427 
	C828.404907,282.708832 810.444397,263.285126 785.561707,250.923462 
	C770.259521,243.321381 753.571716,241.022293 736.795288,239.325699 
	C733.329773,238.975220 728.856995,238.912308 728.500183,234.628540 
	C728.170654,230.671509 732.752014,230.601105 735.549561,229.603485 
	C746.859985,225.570160 756.984619,219.666336 765.540649,211.193863 
	C769.132385,207.637238 771.747559,203.490387 773.870117,197.794205 
	C758.079041,206.839645 743.148254,206.625504 726.650146,203.774246 
	C713.366150,201.478455 700.905090,195.946976 687.533020,193.765137 
	C660.513367,189.356522 636.764038,195.988297 616.034790,213.768066 
	C614.340210,215.221588 612.766785,217.778519 610.114075,216.124893 
	C607.657166,214.593246 608.630798,211.926178 609.151184,209.727600 
	C615.116333,184.526215 640.288574,155.029434 669.430847,151.564072 
	C670.372131,151.452164 671.477600,151.337143 671.663086,150.008469 
	C670.937012,148.663193 669.537537,148.572220 668.312988,148.124802 
	C652.645020,142.400238 636.516785,141.900650 620.057495,143.101822 
	C597.247864,144.766418 576.987915,152.392502 559.150757,166.721924 
	C548.517517,175.264130 539.933228,185.604065 531.803894,196.422043 
	C530.200928,198.555191 528.902344,202.248322 525.535095,201.126404 
	C522.365051,200.070190 523.857849,196.494186 523.687744,193.996979 
	C522.990967,183.768585 525.134216,173.812897 526.684509,163.787415 
	C529.738586,144.038315 536.317688,126.066071 551.679138,112.316414 
	C552.403564,111.668030 553.129700,110.882645 552.633179,109.667908 
	C550.964966,108.806335 549.456299,109.691498 547.875244,110.125099 
	C517.636719,118.417740 499.510651,139.337158 488.278168,167.379410 
	C483.800690,178.557602 480.656403,190.067947 480.057190,202.198013 
	C479.949463,204.379364 479.926147,207.415619 477.085571,207.940201 
	C474.091553,208.493073 474.020111,205.489777 473.373535,203.564346 
	C469.599915,192.327362 464.974518,181.479248 459.310028,171.047943 
	C447.853607,149.950775 429.204865,138.072586 407.272736,130.106079 
	C417.999268,141.485550 422.672333,155.701202 426.684601,170.214401 
	C427.745361,174.051361 428.966034,177.964798 428.013214,181.998154 
	C427.363312,184.749344 426.529755,187.669510 423.081604,188.217087 
	C419.930786,188.717438 418.079987,186.656799 416.698700,184.296600 
	C406.288147,166.508224 389.274567,158.034088 370.652954,152.292221 
	C351.105927,146.264984 330.851501,146.900955 310.694336,147.527115 
	C307.100464,147.638763 303.529663,148.493454 299.948212,149.005051 
	C301.903931,150.471802 303.829529,151.000916 305.662964,151.754349 
	C326.247345,160.213104 341.355347,174.079590 348.581116,195.593430 
	C349.739258,199.041779 350.736115,202.605667 349.245758,206.309509 
	C347.445282,210.783966 344.223633,211.541183 340.990387,207.903519 
	C334.647583,200.767349 326.553833,196.683121 317.523956,194.415024 
	C296.147247,189.045624 276.433685,193.635818 258.649811,205.918549 
	C245.012665,215.337280 231.585220,224.696747 213.878708,225.525986 
	C215.558395,227.941589 217.647720,228.622192 219.481705,229.614410 
	C230.189209,235.407425 241.796173,238.102570 253.760834,239.727631 
	C262.845947,240.961594 271.799622,242.895813 280.137695,246.924057 
	C281.553375,247.607986 283.655457,248.122971 283.401764,250.198776 
	C283.141357,252.329498 281.056091,252.155258 279.443512,252.420456 
	C275.016022,253.148636 270.591766,253.896606 265.391998,254.900345 
M608.538818,766.082458 
	C613.591553,758.826782 618.296814,751.369751 622.149597,743.319702 
	C606.052063,749.582214 590.135498,755.407715 573.496704,759.053101 
	C568.011841,760.254761 563.456238,762.841003 559.523315,767.123840 
	C555.266541,771.759155 550.317322,775.784180 545.156006,779.489502 
	C531.649292,789.185730 516.548523,795.008606 500.323273,798.122314 
	C497.036865,798.752991 495.132629,799.760132 497.821106,803.285828 
	C506.305054,814.411865 514.486145,825.778870 523.248108,836.679932 
	C531.700012,847.195190 538.229004,847.608643 548.687073,839.215515 
	C549.724426,838.383057 550.709229,837.475281 551.650330,836.534363 
	C572.944214,815.244202 590.828674,791.197205 608.538818,766.082458 
M406.513153,805.113586 
	C408.747314,812.251831 410.637299,819.521790 413.303986,826.494629 
	C416.539642,834.955200 421.664093,835.713379 426.943970,828.736206 
	C433.167938,820.511475 439.120911,812.081848 445.202026,803.748779 
	C447.661285,800.378845 446.680420,798.853394 442.686707,798.119507 
	C434.347198,796.587036 426.016022,794.888916 417.965179,792.185425 
	C412.567078,790.372742 407.324860,788.095886 401.195648,785.708374 
	C403.078003,792.521851 404.708313,798.422974 406.513153,805.113586 
M294.284271,594.917542 
	C295.210876,589.267212 294.135925,583.639343 294.125305,578.004456 
	C294.101746,565.529602 294.491455,553.054016 294.477844,540.578979 
	C294.472900,536.026978 294.473938,531.377502 292.751404,525.915100 
	C287.752991,530.367981 284.767883,535.056641 283.556641,540.601135 
	C279.538513,558.994202 282.243988,576.611206 290.418915,593.453125 
	C291.041718,594.736206 291.474457,597.040771 294.284271,594.917542 
z"/>
<path fill="#000000" opacity="1.000000" stroke="none" 
	d="
M752.259399,828.261108 
	C754.248779,826.461365 755.940491,824.851624 757.756226,823.396667 
	C759.273926,822.180542 761.052612,820.261230 762.982178,821.994080 
	C765.264587,824.043762 763.062317,826.078186 761.849854,827.622925 
	C758.858032,831.434692 756.319153,835.518799 753.680725,839.565857 
	C739.524353,861.280945 730.322205,885.084106 723.522949,909.943115 
	C722.588074,913.361023 722.180603,917.075684 719.053528,920.495239 
	C718.749329,915.907898 718.627502,912.070129 712.865662,912.005371 
	C711.013672,911.984619 711.724365,908.534363 712.276428,906.684875 
	C715.707275,895.190308 719.704407,883.871460 724.465576,872.877502 
	C731.444092,856.763977 739.979675,841.531677 752.259399,828.261108 
z"/>
<path fill="#000000" opacity="1.000000" stroke="none" 
	d="
M710.888123,946.020203 
	C712.032288,946.206421 712.903809,946.320068 713.122498,947.279541 
	C713.357300,948.309570 712.641174,948.814209 711.804199,948.913208 
	C710.073242,949.117859 708.206299,949.500488 707.237610,947.352417 
	C707.863464,945.634155 709.342957,946.164734 710.888123,946.020203 
z"/>
<path fill="#000000" opacity="1.000000" stroke="none" 
	d="
M355.449524,621.411133 
	C360.451630,617.168457 365.700195,613.915588 371.239136,611.208435 
	C375.288452,609.229309 377.161407,606.710327 376.799561,601.880798 
	C376.161255,593.360779 377.575958,584.973083 380.247559,576.824280 
	C380.746063,575.303772 381.938446,573.639587 380.578339,572.127441 
	C379.095123,570.478516 377.436920,571.960876 375.971313,572.423035 
	C368.787231,574.688721 361.580353,576.267578 353.931152,575.365906 
	C346.646271,574.507202 341.318481,570.558411 336.608459,565.401978 
	C335.788513,564.504333 335.323425,563.452393 336.100067,562.233826 
	C337.480225,561.289856 338.690063,561.983032 339.749084,562.766479 
	C351.992126,571.824524 364.566315,569.140503 377.114838,563.706482 
	C385.638672,560.015259 392.674957,554.119690 399.343811,547.781372 
	C402.362061,544.912720 405.269012,541.926392 408.306213,539.078491 
	C409.720154,537.752625 411.182068,536.281799 413.390320,536.716980 
	C414.925720,538.886108 413.414368,540.407349 412.618286,541.900940 
	C409.311279,548.105530 404.817871,553.474121 400.501373,558.982971 
	C390.265320,572.046204 386.717621,587.035461 390.095459,603.076721 
	C393.446472,618.990479 405.942871,625.954224 420.320007,629.453308 
	C445.822296,635.660156 469.589905,629.978210 491.613159,616.695129 
	C504.695770,608.804504 506.590057,596.331604 497.852631,583.716003 
	C495.877686,580.864380 492.551880,578.722290 492.224762,574.867981 
	C494.326996,573.255249 495.595032,574.708191 496.911469,575.576416 
	C500.405640,577.880920 503.621002,580.568115 506.315491,583.750305 
	C518.260498,597.857300 532.249817,610.066345 543.789429,624.579834 
	C548.630188,630.668152 554.836731,635.651855 560.197449,641.349243 
	C572.572754,654.501465 581.079102,669.691589 583.853760,687.755310 
	C584.966736,695.001099 584.166809,702.055481 580.992676,708.699341 
	C578.276123,714.385437 574.100342,715.830017 568.260132,713.305481 
	C566.547668,712.565247 564.919617,711.743713 563.039246,712.715393 
	C556.303284,716.196045 550.138428,714.357910 544.196838,710.648071 
	C542.502563,709.590210 540.847351,708.466187 539.211060,707.319824 
	C536.360596,705.322815 533.589111,704.513367 529.943176,705.770203 
	C525.606445,707.265259 521.012390,706.409119 516.701843,704.945374 
	C512.750549,703.603516 510.566254,704.886658 509.949707,708.920044 
	C508.439545,718.799561 504.627289,727.763550 499.248901,736.116638 
	C497.614746,738.654602 498.588684,739.983643 501.210144,740.940186 
	C503.752625,741.868042 506.950134,741.401672 508.891296,744.361206 
	C506.809875,747.793274 503.279083,747.255249 500.513123,746.735168 
	C494.066040,745.522766 489.406067,747.501953 484.326660,751.692444 
	C465.970612,766.836243 444.933136,770.948730 421.976135,764.634155 
	C393.117828,756.696411 377.141754,730.596741 383.077637,701.285278 
	C383.176605,700.796631 383.393494,700.327026 383.453064,699.836182 
	C383.749176,697.396057 384.626862,694.805664 381.925598,693.044373 
	C379.406647,691.401917 377.182861,692.349609 374.997009,693.830261 
	C372.242859,695.695984 369.523529,697.625305 366.673279,699.333862 
	C362.561829,701.798340 358.306519,703.580383 353.526093,700.884521 
	C351.391144,699.680542 349.763336,700.981079 348.067657,702.119446 
	C337.868469,708.966614 328.411591,705.713562 325.685883,693.700806 
	C320.959717,672.871948 326.444733,654.121887 339.270050,637.472656 
	C343.829285,631.554016 349.249237,626.289856 355.449524,621.411133 
M408.501801,679.048096 
	C410.130127,677.637695 411.821625,676.293091 413.372589,674.802246 
	C415.984528,672.291565 417.875946,671.742249 419.631287,675.848816 
	C423.306854,684.447754 429.814941,686.422241 437.053192,680.482300 
	C441.878479,676.522400 444.881866,677.081665 449.347198,680.948181 
	C456.703613,687.317871 464.946014,685.653809 469.890350,677.455383 
	C471.690033,674.471252 473.346680,674.179993 475.624725,676.761658 
	C479.073456,680.670105 482.871063,684.118408 487.905457,685.911499 
	C491.858826,687.319519 495.717926,687.227478 498.282715,683.623291 
	C500.948486,679.877136 502.859100,681.123230 505.357788,683.630066 
	C509.984711,688.271973 515.184204,692.084473 521.674133,693.811401 
	C524.666199,694.607605 527.565857,694.343018 529.393188,691.818237 
	C532.041260,688.159424 534.298889,689.083740 537.186829,691.434265 
	C542.079102,695.416077 546.679016,699.838745 552.555176,702.471252 
	C555.273315,703.688965 557.316345,703.829712 557.978027,700.094788 
	C558.696594,696.038208 561.329285,696.221375 564.379883,697.531250 
	C566.796509,698.569031 568.523376,700.927368 571.407593,701.218079 
	C573.298889,699.459167 573.518616,697.162659 573.648804,694.829407 
	C573.856018,691.115845 573.237488,687.449219 572.055725,684.016602 
	C562.280884,655.622986 545.880249,634.254883 514.259705,628.107300 
	C505.378998,626.380676 497.293213,624.857666 489.840240,631.410767 
	C489.012543,632.138550 487.721558,632.335510 486.650726,632.791199 
	C473.376160,638.440308 459.662415,641.968567 445.140350,642.612915 
	C422.238892,643.628967 401.414429,639.201233 385.197510,621.515381 
	C383.484344,619.647095 381.887360,619.112183 379.531281,620.303467 
	C365.556183,627.369385 352.758942,635.807129 343.705841,649.064270 
	C335.170410,661.563416 333.182861,675.433472 334.494049,690.067444 
	C334.671570,692.048828 335.410919,694.135437 337.740784,694.639587 
	C339.854614,695.096863 341.129395,693.522644 342.255188,692.077881 
	C344.403503,689.320984 346.400055,686.445740 348.551453,683.691406 
	C349.764923,682.137817 350.968048,680.322998 353.409729,680.911682 
	C355.557770,681.429443 355.231262,683.467896 355.690338,684.967407 
	C357.324097,690.303772 359.075409,690.983643 363.913330,687.778259 
	C368.767456,684.562073 373.577606,681.269226 378.272095,677.826050 
	C381.575745,675.402954 383.570984,675.730042 385.676483,679.531128 
	C388.786469,685.145752 392.109802,686.026306 398.272400,683.634155 
	C401.526733,682.370911 404.672882,680.828979 408.501801,679.048096 
M432.686707,718.166931 
	C432.369293,712.465637 433.081360,706.880859 434.495392,701.360474 
	C435.430634,697.709229 434.153992,695.617126 430.197937,695.216980 
	C427.567230,694.950928 424.440552,695.064209 422.464996,693.680786 
	C416.173157,689.274902 410.310181,691.108337 404.257721,693.773315 
	C403.197296,694.240295 402.063049,694.554504 400.943024,694.868530 
	C398.335602,695.599731 396.641022,697.269104 395.687439,699.771179 
	C389.558350,715.853271 392.957886,737.212830 410.689240,748.040527 
	C434.740906,762.727661 464.980377,758.529663 484.086761,737.815186 
	C492.374237,728.830139 496.993896,718.101562 498.550751,706.084961 
	C498.977478,702.791504 499.753876,698.434509 494.241730,698.394836 
	C487.889526,698.349121 482.122681,696.469055 476.635040,693.542419 
	C474.325897,692.310852 472.305542,692.452454 470.058105,693.675720 
	C464.540436,696.679321 458.443634,697.234619 452.573181,695.838013 
	C447.277222,694.578064 445.017029,696.782410 443.745331,701.146790 
	C442.072052,706.889648 440.706451,712.722534 439.004852,718.456299 
	C438.355896,720.643066 438.372498,723.608215 435.079132,723.953430 
	C433.196014,722.700623 432.961029,720.882812 432.686707,718.166931 
M511.954529,613.092529 
	C514.745911,614.229370 517.909058,614.204224 520.953735,616.759644 
	C521.484619,611.678223 518.155701,610.158020 515.533569,608.979675 
	C513.000549,607.841370 511.769958,609.995422 511.954529,613.092529 
z"/>
<path fill="#000000" opacity="1.000000" stroke="none" 
	d="
M556.073242,424.121094 
	C544.511902,421.100769 532.948608,421.141327 521.640625,419.334412 
	C512.975037,417.949677 504.647919,415.534576 498.097687,409.358368 
	C489.464417,401.218079 485.822266,391.322052 488.974213,379.525787 
	C489.644989,377.015381 490.484711,373.770508 493.898987,374.249481 
	C497.244690,374.718811 497.209198,377.934601 497.305573,380.632751 
	C497.412476,383.625519 497.110474,386.686127 497.634521,389.600677 
	C499.145172,398.002716 504.715424,402.757599 512.475098,405.559174 
	C522.922546,409.331146 533.932800,409.948090 544.752991,411.588074 
	C572.801331,415.839294 598.289978,425.915863 620.263184,444.193665 
	C621.020386,444.823517 621.859558,445.374420 622.723083,445.848206 
	C623.127380,446.070099 623.680725,446.020264 624.121643,446.086792 
	C626.207214,444.816437 625.121155,443.146606 624.813904,441.600250 
	C621.136597,423.092896 608.971191,410.887970 594.154053,400.827209 
	C577.115967,389.258392 558.138916,384.152985 537.576599,384.270081 
	C528.950806,384.319214 520.251526,385.268188 511.688324,383.341461 
	C510.237854,383.015106 508.777130,382.583954 507.438171,381.952972 
	C506.000305,381.275391 505.077667,379.952118 505.209259,378.339935 
	C505.359161,376.503265 506.624725,375.403229 508.368835,374.889069 
	C508.684784,374.795898 509.024109,374.752747 509.354492,374.741821 
	C539.372498,373.751129 569.391602,372.363678 596.389465,389.574646 
	C610.576111,398.618561 622.721619,409.382721 629.759521,425.005798 
	C634.073669,434.582428 635.205505,444.826721 635.156921,455.187714 
	C635.142273,458.315582 634.386658,461.824127 630.888977,463.024506 
	C627.663452,464.131500 625.762451,461.372498 623.754822,459.435944 
	C604.768921,441.122589 581.868835,430.294067 556.073242,424.121094 
z"/>
<path fill="#000000" opacity="1.000000" stroke="none" 
	d="
M401.661652,377.486389 
	C396.632446,382.218781 390.297272,382.695923 384.404114,384.274445 
	C376.858398,386.295654 369.257233,388.108673 361.697235,390.077820 
	C337.012482,396.507416 325.656586,414.358063 320.570953,437.569977 
	C321.957703,438.836243 322.772064,437.930817 323.393829,437.281860 
	C337.371338,422.692322 355.405029,416.218231 374.419495,411.676025 
	C380.241547,410.285278 386.061157,408.907349 391.599701,406.523560 
	C402.269501,401.931335 407.328461,393.690002 407.652435,382.286163 
	C407.704437,380.454926 407.672028,378.621399 407.702301,376.789337 
	C407.736694,374.710052 407.956787,372.396606 410.458008,372.166077 
	C412.899109,371.941101 414.275665,373.842621 415.051117,376.044830 
	C419.622223,389.026245 413.780853,405.648926 401.952515,413.455780 
	C394.109039,418.632568 385.130096,420.568665 376.147949,422.253815 
	C355.130280,426.196838 336.397766,434.237335 322.066223,450.821960 
	C320.234192,452.941956 318.382599,456.162170 314.718475,454.712921 
	C311.178558,453.312805 310.917206,449.672455 310.828644,446.634552 
	C310.440308,433.312683 314.212341,421.056641 320.839172,409.555206 
	C331.790009,390.548981 349.398041,381.933960 369.925354,377.812561 
	C378.067566,376.177795 386.206818,374.496735 394.401489,373.170837 
	C397.547638,372.661774 401.364807,372.127472 401.661652,377.486389 
z"/>
<path fill="#000000" opacity="1.000000" stroke="none" 
	d="
M518.939087,490.706482 
	C547.273743,493.351135 574.887024,497.232147 601.298401,507.083923 
	C604.419128,508.247955 607.402832,509.757690 610.029663,511.870331 
	C612.152222,513.577393 612.655334,515.531738 611.237549,518.005859 
	C609.722473,520.649841 607.859070,519.966980 605.722839,518.964844 
	C598.291016,515.478394 590.301941,513.805664 582.399780,511.817566 
	C579.464355,511.079041 577.805298,511.790192 576.337280,514.462769 
	C571.604492,523.078918 563.835999,526.111694 554.475769,525.231262 
	C545.930237,524.427490 540.100037,519.615356 536.733887,511.774017 
	C536.406189,511.010712 535.842468,510.175018 535.927917,509.435150 
	C536.732605,502.460938 532.366516,501.169128 526.846619,500.811005 
	C521.078857,500.436859 515.394897,498.591278 509.523071,500.069336 
	C508.268188,500.385223 506.865356,500.232391 505.542786,500.133484 
	C503.389832,499.972473 501.539734,499.134644 501.205841,496.763947 
	C500.896851,494.570007 502.515198,493.476562 504.252197,492.703705 
	C508.789795,490.684631 513.615051,490.589630 518.939087,490.706482 
z"/>
<path fill="#000000" opacity="1.000000" stroke="none" 
	d="
M398.232819,505.809875 
	C396.201660,513.886230 392.687195,520.581055 384.171631,522.053955 
	C374.899750,523.657776 366.498444,521.176636 360.544281,513.451172 
	C358.296417,510.534515 356.224182,510.013031 352.899872,510.987732 
	C347.310394,512.626587 341.670319,514.078857 336.255707,516.261230 
	C334.385315,517.015076 332.469421,517.646545 330.433411,517.437866 
	C327.208771,517.107178 325.890015,514.378296 327.748230,511.696350 
	C329.829590,508.692383 332.943970,506.875488 336.350494,506.004211 
	C359.989807,499.957947 383.146149,491.727661 407.762451,490.038147 
	C410.654114,489.839722 413.396851,490.255829 416.045502,491.407471 
	C418.253693,492.367554 419.720520,493.880585 419.149323,496.431030 
	C418.543823,499.134644 416.490234,500.380707 413.916595,499.950684 
	C410.235779,499.335602 406.651703,499.639618 402.986145,499.945648 
	C399.357513,500.248627 397.919006,501.915192 398.232819,505.809875 
z"/>
<path fill="#000000" opacity="1.000000" stroke="none" 
	d="
M705.010376,583.987671 
	C703.270203,586.852356 701.764038,589.439636 700.176392,591.975891 
	C699.537415,592.996582 698.617249,593.852783 697.287476,593.293579 
	C696.038574,592.768433 695.672424,591.532227 695.918457,590.356140 
	C696.394043,588.083435 696.918213,585.791626 697.731750,583.623840 
	C702.599915,570.651672 707.764404,557.836243 718.643311,548.429504 
	C719.398010,547.776855 720.148376,547.115845 720.939636,546.509460 
	C734.754211,535.922485 746.417419,539.959045 750.626770,556.843689 
	C751.347351,559.733826 751.760437,562.711975 752.135864,565.672363 
	C752.346741,567.335571 752.273499,569.310913 750.245789,569.781433 
	C748.013916,570.299255 747.567749,568.217590 747.064392,566.706543 
	C746.278259,564.346313 745.923462,561.829163 745.011963,559.526489 
	C742.038940,552.015442 736.166077,549.898193 729.020386,553.659912 
	C727.410034,554.507629 725.807495,555.437256 724.383179,556.559937 
	C718.076172,561.531311 718.217285,562.483643 723.977478,567.753540 
	C728.791687,572.158142 730.822998,577.983704 730.182129,584.453125 
	C729.214172,594.224731 725.760193,603.173706 720.242065,611.286560 
	C718.335876,614.089111 715.699158,616.103943 712.535767,617.420654 
	C710.775635,618.153320 708.954163,618.898376 707.541016,617.085693 
	C706.026123,615.142639 707.582947,613.605530 708.769165,612.288757 
	C714.974548,605.400146 718.150330,597.084595 720.296570,588.263123 
	C720.894226,585.806335 721.096741,583.288757 720.596802,580.834229 
	C719.460327,575.253967 714.133667,573.491150 710.132629,577.433655 
	C708.257812,579.281067 706.837830,581.590027 705.010376,583.987671 
z"/>
<path fill="#000000" opacity="1.000000" stroke="none" 
	d="
M370.325623,343.135773 
	C391.430603,333.597504 413.031494,331.076752 435.538879,334.434631 
	C452.875244,337.021027 470.056610,334.836212 487.056702,331.213806 
	C509.147339,326.506653 530.740173,328.993317 552.082703,335.413788 
	C554.358643,336.098450 557.111511,336.415894 557.775269,339.497009 
	C556.182068,341.964020 553.999451,341.128082 551.921326,340.673187 
	C538.594666,337.755920 525.308228,334.799500 511.492096,335.231750 
	C500.260956,335.583160 489.397156,337.941101 478.520599,340.325317 
	C462.033844,343.939331 445.497925,343.756958 428.933716,341.152771 
	C408.124725,337.881256 388.166656,340.924133 368.800293,348.852356 
	C366.928558,349.618561 364.978271,351.153625 362.574127,349.295288 
	C363.727692,345.622009 367.380127,345.081543 370.325623,343.135773 
z"/>
<path fill="#000000" opacity="1.000000" stroke="none" 
	d="
M593.210815,570.217834 
	C596.468140,569.024780 598.681091,566.414062 602.028687,565.956055 
	C603.632568,568.850098 601.582703,570.201843 600.094849,571.550293 
	C593.055786,577.929810 584.562500,581.342224 575.281189,582.210938 
	C547.081116,584.850525 525.631897,573.005859 509.389862,550.584045 
	C508.043365,548.725342 507.125305,546.529419 506.187134,544.410950 
	C505.546265,542.963806 505.529663,541.440002 507.175568,540.487183 
	C508.649567,539.633972 509.772003,540.482666 510.691528,541.466064 
	C513.192200,544.140320 515.670837,546.839844 518.051453,549.620728 
	C529.000671,562.411011 542.112366,571.616760 559.156616,574.053711 
	C570.667236,575.699402 582.068054,575.583313 593.210815,570.217834 
z"/>
<path fill="#000000" opacity="1.000000" stroke="none" 
	d="
M534.956421,546.213989 
	C526.383972,542.093933 519.140869,536.893860 513.857666,529.296814 
	C512.916443,527.943420 512.129822,526.459106 511.446320,524.955933 
	C510.602570,523.100037 510.723328,521.206238 512.662292,520.168335 
	C514.444580,519.214355 515.820862,520.405518 516.959351,521.737061 
	C536.716187,544.843445 561.743530,547.401306 589.247742,540.266235 
	C590.690796,539.891846 592.090210,539.322815 593.896179,540.061279 
	C594.932251,544.840515 591.450012,546.762573 588.097595,548.422058 
	C580.289734,552.287109 571.730774,553.117676 563.268921,552.940857 
	C553.593567,552.738464 544.114868,550.721741 534.956421,546.213989 
z"/>
<path fill="#000000" opacity="1.000000" stroke="none" 
	d="
M557.930664,265.926788 
	C550.020996,272.716583 543.748535,280.416107 538.349304,288.895142 
	C536.314941,292.089996 533.854431,296.259949 529.383911,293.428955 
	C525.089233,290.709320 527.314209,286.759735 529.375610,283.338745 
	C540.452942,264.954987 556.641846,253.208038 576.872131,246.694901 
	C577.504944,246.491165 578.137756,246.250183 578.789551,246.149536 
	C581.029419,245.803650 583.971069,244.650497 584.909546,247.486664 
	C585.925842,250.558060 582.661926,251.068939 580.637146,251.918823 
	C572.441467,255.358963 564.953430,259.921875 557.930664,265.926788 
z"/>
<path fill="#000000" opacity="1.000000" stroke="none" 
	d="
M365.708527,540.654663 
	C384.514191,539.330994 399.188995,530.998230 410.449493,515.801636 
	C413.201111,519.928589 412.263245,522.627441 410.783844,525.282715 
	C405.409607,534.928528 396.706207,540.622192 386.929901,544.794861 
	C376.066711,549.431458 364.865204,550.819214 353.411224,546.825806 
	C352.470612,546.497864 351.475220,546.252686 350.620789,545.766296 
	C348.267334,544.426453 344.429901,543.438660 345.735748,540.031067 
	C346.890656,537.017456 350.122528,539.093201 352.377716,539.654663 
	C356.631104,540.713562 360.930023,540.737305 365.708527,540.654663 
z"/>
<path fill="#000000" opacity="1.000000" stroke="none" 
	d="
M438.314331,257.681519 
	C443.987610,272.312103 453.676971,282.842346 467.148224,290.014526 
	C469.364471,291.194489 472.860474,292.121277 471.341614,295.626465 
	C469.858429,299.049316 466.548767,298.822662 463.570465,297.567657 
	C444.822266,289.667603 434.336090,275.226593 430.711395,255.525330 
	C430.177124,252.621277 429.559204,249.600006 430.348633,246.606735 
	C430.783447,244.958084 430.138275,242.331696 432.588684,242.182159 
	C434.938538,242.038757 434.953369,244.450699 435.377228,246.216309 
	C436.267822,249.926453 437.256958,253.612961 438.314331,257.681519 
z"/>
<path fill="#000000" opacity="1.000000" stroke="none" 
	d="
M537.323181,234.255173 
	C543.100220,229.939682 548.908081,226.382217 555.298645,223.851166 
	C556.528992,223.363907 557.816711,222.903214 559.116821,222.739899 
	C560.826111,222.525208 563.145081,221.612320 563.788391,224.080017 
	C564.315552,226.102127 562.204102,226.805923 560.741333,227.438889 
	C553.822449,230.432861 547.394592,234.174850 541.636719,239.090668 
	C533.809875,245.772903 527.473511,253.583893 522.879883,262.815887 
	C521.881714,264.821960 521.277039,267.269135 518.632507,268.021362 
	C516.094299,266.634918 517.235107,264.535858 517.621521,262.730743 
	C520.206177,250.655777 528.129883,242.219788 537.323181,234.255173 
z"/>
<path fill="#000000" opacity="1.000000" stroke="none" 
	d="
M618.087524,492.326630 
	C618.978577,494.918121 619.510559,497.150665 619.326233,499.520905 
	C619.219360,500.895538 619.098511,502.356537 617.633179,502.819824 
	C615.898865,503.368134 614.912903,502.039612 614.073120,500.769226 
	C613.710876,500.221252 613.394714,499.617981 613.186768,498.996643 
	C610.644775,491.398956 607.346008,484.230194 601.825684,478.253479 
	C600.914246,477.266724 600.290649,475.936859 601.455261,474.694458 
	C602.648987,473.421021 603.927979,474.326355 605.095947,474.850647 
	C609.586731,476.866699 612.100586,480.820526 614.489380,484.799377 
	C615.845703,487.058777 616.810364,489.553284 618.087524,492.326630 
z"/>
<path fill="#000000" opacity="1.000000" stroke="none" 
	d="
M412.014893,447.065674 
	C415.625092,451.792755 417.925934,456.684662 418.217377,462.339172 
	C418.310181,464.139557 418.378326,466.427673 416.123718,466.821564 
	C413.792542,467.228821 413.331268,464.872009 412.724243,463.243561 
	C409.918579,455.716614 406.432068,448.638184 400.351807,443.122864 
	C399.377899,442.239471 398.282104,441.038574 399.279419,439.683594 
	C400.331635,438.254150 401.923523,438.673889 403.358582,439.273651 
	C407.028259,440.807434 409.474335,443.722961 412.014893,447.065674 
z"/>
<path fill="#000000" opacity="1.000000" stroke="none" 
	d="
M510.041931,451.212738 
	C512.825562,446.705811 516.282043,443.469055 520.768677,441.392365 
	C522.169006,440.744202 523.742554,440.269379 524.733765,441.910309 
	C525.597656,443.340546 524.480530,444.416229 523.505493,445.319702 
	C517.024841,451.324463 512.586914,458.553711 510.310394,467.103699 
	C509.963013,468.408356 509.461395,469.892212 507.814026,469.667236 
	C505.937042,469.410919 505.773895,467.659058 505.785095,466.178711 
	C505.824677,460.944550 507.209839,456.054779 510.041931,451.212738 
z"/>
<path fill="#000000" opacity="1.000000" stroke="none" 
	d="
M338.119080,479.124023 
	C334.742493,483.764893 332.399780,488.479279 331.185699,493.772491 
	C330.676056,495.994568 329.941345,499.044281 327.026886,498.400208 
	C323.841156,497.696198 324.286133,494.340210 324.951050,492.079742 
	C327.125916,484.685791 330.069366,477.610962 336.347992,472.594513 
	C337.863708,471.383514 339.849091,469.612274 341.639984,471.357910 
	C343.672363,473.338928 341.011963,474.852997 340.152466,476.466644 
	C339.690430,477.334106 338.940643,478.048279 338.119080,479.124023 
z"/>
<path fill="#000000" opacity="1.000000" stroke="none" 
	d="
M624.269226,532.576538 
	C629.307190,533.478882 632.107788,537.137817 635.307495,540.165039 
	C636.503906,541.296875 636.759033,543.213318 634.964661,543.871521 
	C631.373962,545.188782 628.363647,543.276672 626.205261,540.743103 
	C624.349487,538.564758 620.516174,536.440491 624.269226,532.576538 
z"/>
<path fill="#000000" opacity="1.000000" stroke="none" 
	d="
M326.166199,534.794678 
	C324.690643,539.028748 322.473450,542.242188 318.544922,543.899292 
	C317.308685,544.420715 315.888153,544.648376 314.844482,543.500854 
	C313.665680,542.204895 314.620697,541.014404 315.348053,539.928345 
	C317.127472,537.271667 319.437958,535.121094 322.161774,533.489990 
	C323.618713,532.617432 325.306000,532.020752 326.166199,534.794678 
z"/>
<path fill="#000000" opacity="1.000000" stroke="none" 
	d="
M625.661987,553.989868 
	C620.581848,554.528748 618.062927,551.485596 615.897583,548.036926 
	C615.055786,546.696289 614.711792,544.920105 616.769226,544.420837 
	C620.234314,543.580017 622.181580,546.415710 624.305725,548.320435 
	C625.788208,549.649841 628.711914,551.013062 625.661987,553.989868 
z"/>
</svg>